# xmcd
#
# Track frame offsets:
#	150
#	22324
#	44749
#	62001
#	78374
#	110994
#	130086
#	149280
#	166947
#	180200
#	201756
#	219768
#
# Disc length: 3348 seconds
# Revision: 0
# Processed by: cddbd v1.5.2PL0 Copyright (c) Steve Scherf et al.
# Submitted via: dBpowerAMP V12.0
#
DISCID=aa0d120c
DTITLE=Trezegraus - Trezegraus
DYEAR=2010
DGENRE=Brazil
TTITLE0=Casa de asas
TTITLE1=Se esta rua
TTITLE2=Choro amoroso
TTITLE3=Pealo de sangue
TTITLE4=Seis por outros
TTITLE5=Milonga de caturrita
TTITLE6=Velha Nogueira
TTITLE7=Perereca do Guinha
TTITLE8=Pro Santinho
TTITLE9=Sete chaves
TTITLE10=Põe tinta no carimbo
TTITLE11=Radamés
EXTD=
EXTT0=
EXTT1=
EXTT2=
EXTT3=
EXTT4=
EXTT5=
EXTT6=
EXTT7=
EXTT8=
EXTT9=
EXTT10=
EXTT11=
PLAYORDER=
